# xmcd CD database file
#
# Track frame offsets:
#	150
#	17030
#	32610
#	52475
#	70672
#	88645
#	108520
#	128412
#	148495
#	166175
#	171845
#	189117
#	192157
#	201327
#	218507
#
# Disc length: 3159 seconds
#
# Revision: 2
# Processed by: cddbd v1.5.2PL0 Copyright (c) Steve Scherf et al.
# Submitted via: CDex 1.51
#
DISCID=d20c550f
DTITLE=Marty Friedman - Music For Speeding
DYEAR=2002
DGENRE=Instrumental Rock
TTITLE0=Gimme A Dose
TTITLE1=Fuel Injection Stingray
TTITLE2=Ripped
TTITLE3=It's The Unreal Thing
TTITLE4=Cheer Girl Rampage
TTITLE5=Lust For Life
TTITLE6=Lovesorrow
TTITLE7=Nastymachine
TTITLE8=Catfight
TTITLE9=Transistor
TTITLE10=Corazon De Santiago
TTITLE11=0-7-2
TTITLE12=Salt In The Wound
TTITLE13=Novocaine Kiss
TTITLE14=Thais
EXTD=YEAR: 2002
EXTT0=
EXTT1=
EXTT2=
EXTT3=
EXTT4=
EXTT5=
EXTT6=
EXTT7=
EXTT8=
EXTT9=
EXTT10=
EXTT11=
EXTT12=
EXTT13=
EXTT14=
PLAYORDER=
